<svg xmlns="http://www.w3.org/2000/svg" width="20" height="22" fill="none"><path fill="#E8E8E8" d="M.727 9.997a3.69 3.69 0 0 0-.61 2.057c0 .867.315 1.62.945 2.26.63.64 1.375.96 2.237.96h2.187c-.397.831-.597 1.64-.597 2.422 0 .984.146 1.766.436 2.347a2.753 2.753 0 0 0 1.267 1.281c.556.273 1.18.41 1.877.41.423 0 .795-.156 1.118-.467.357-.353.613-.808.77-1.363.15-.526.277-1.058.38-1.596.095-.51.242-.87.44-1.08.407-.445.85-.984 1.33-1.615.838-1.102 1.405-1.754 1.703-1.956h3.405c.44 0 .815-.158 1.125-.473a1.57 1.57 0 0 0 .467-1.142V3.965c0-.446-.155-.827-.466-1.142a1.517 1.517 0 0 0-1.125-.473h-3.58c-.182 0-.753-.169-1.714-.505a28.141 28.141 0 0 0-2.691-.827A9.88 9.88 0 0 0 7.276.734H5.673c-1.168 0-2.11.34-2.821 1.016-.712.678-1.065 1.6-1.057 2.77-.497.648-.745 1.397-.745 2.247 0 .182.012.363.037.542a3.667 3.667 0 0 0-.472 1.817 3.34 3.34 0 0 0 .112.871Z"/></svg>