<svg xmlns="http://www.w3.org/2000/svg" width="20" height="22" fill="none"><path fill="#E8E8E8" d="M19.07 12.471c.403-.61.615-1.326.61-2.057 0-.867-.315-1.62-.945-2.26-.63-.639-1.375-.959-2.237-.959h-2.187c.397-.832.597-1.64.597-2.423 0-.984-.146-1.766-.436-2.347a2.752 2.752 0 0 0-1.267-1.28c-.556-.274-1.181-.41-1.877-.41-.423 0-.795.155-1.118.466-.357.353-.613.808-.77 1.363a18.23 18.23 0 0 0-.38 1.596c-.095.51-.242.87-.441 1.08-.406.445-.85.984-1.33 1.615-.837 1.102-1.404 1.754-1.702 1.956H2.182c-.44 0-.815.158-1.125.473a1.57 1.57 0 0 0-.467 1.142v8.077c0 .446.155.827.466 1.142.31.316.685.473 1.125.473H5.76c.183 0 .754.17 1.715.505a28.14 28.14 0 0 0 2.691.827 9.78 9.78 0 0 0 2.355.284h1.603c1.168 0 2.109-.339 2.821-1.016.712-.678 1.065-1.6 1.057-2.77.497-.648.745-1.397.745-2.247 0-.18-.012-.362-.037-.542.315-.564.472-1.17.472-1.817a3.338 3.338 0 0 0-.112-.87Z"/></svg>