<svg width="20" height="20" viewBox="0 0 20 20" fill="none" xmlns="http://www.w3.org/2000/svg">
<path d="M19.8 19L12.9 12.1C15.3 9.20001 15.2 4.90001 12.5 2.20001C11.1 0.800012 9.29999 0.100006 7.29999 0.100006C5.29999 0.100006 3.50001 0.900012 2.10001 2.20001C0.700006 3.60001 0 5.39999 0 7.39999C0 9.39999 0.800006 11.2 2.10001 12.6C3.50001 14 5.29999 14.7 7.29999 14.7C8.99999 14.7 10.7 14.1 12 13L18.9 19.9C19 20 19.2 20.1 19.3 20.1C19.5 20.1 19.6 20 19.7 19.9C20.1 19.6 20.1 19.2 19.8 19ZM3 11.6C1.9 10.5 1.20001 8.89999 1.20001 7.29999C1.20001 5.69999 1.8 4.2 3 3C4.1 1.9 5.69999 1.20001 7.29999 1.20001C8.89999 1.20001 10.4 1.8 11.6 3C14 5.4 14 9.20001 11.6 11.6C10.5 12.7 8.89999 13.4 7.29999 13.4C5.69999 13.4 4.2 12.8 3 11.6Z" fill="white"/>
</svg>
