<svg width="20" height="22" viewBox="0 0 20 22" fill="none" xmlns="http://www.w3.org/2000/svg">
<path d="M0.726839 9.99737C0.3242 10.6075 0.111883 11.3234 0.116838 12.0544C0.116838 12.9214 0.431839 13.6744 1.06184 14.3144C1.69184 14.9534 2.43684 15.2734 3.29884 15.2734H5.48584C5.08884 16.1054 4.88884 16.9134 4.88884 17.6964C4.88884 18.6804 5.03484 19.4624 5.32484 20.0434C5.59147 20.6004 6.03773 21.0516 6.59184 21.3244C7.14784 21.5974 7.77284 21.7344 8.46884 21.7344C8.89184 21.7344 9.26384 21.5784 9.58684 21.2674C9.94384 20.9144 10.1998 20.4594 10.3568 19.9044C10.5077 19.3784 10.6345 18.8459 10.7368 18.3084C10.8318 17.7984 10.9788 17.4384 11.1778 17.2284C11.5838 16.7834 12.0278 16.2444 12.5078 15.6134C13.3448 14.5114 13.9118 13.8594 14.2098 13.6574H17.6148C18.0548 13.6574 18.4298 13.4994 18.7398 13.1844C18.8908 13.0354 19.01 12.8574 19.0902 12.6612C19.1705 12.4649 19.2102 12.2544 19.2068 12.0424L19.2068 3.96538C19.2068 3.51938 19.0518 3.13838 18.7408 2.82338C18.4308 2.50738 18.0558 2.35037 17.6158 2.35037H14.0368C13.8538 2.35037 13.2828 2.18138 12.3218 1.84538C11.3018 1.48338 10.4058 1.20737 9.63084 1.01838C8.86009 0.829475 8.0694 0.734121 7.27584 0.734375H5.67284C4.50484 0.734375 3.56384 1.07338 2.85184 1.75038C2.13984 2.42838 1.78684 3.35037 1.79484 4.52037C1.29784 5.16838 1.04984 5.91737 1.04984 6.76737C1.04953 6.94868 1.06189 7.12979 1.08684 7.30937C0.771839 7.87337 0.61484 8.47937 0.61484 9.12638C0.613676 9.42037 0.651335 9.71324 0.726839 9.99737Z" fill="#E8E8E8"/>
</svg>
