<svg width="20" height="22" viewBox="0 0 20 22" fill="none" xmlns="http://www.w3.org/2000/svg">
<path d="M19.07 12.4714C19.4727 11.8613 19.685 11.1453 19.68 10.4144C19.68 9.54738 19.365 8.79438 18.735 8.15438C18.105 7.51538 17.36 7.19537 16.498 7.19537H14.311C14.708 6.36337 14.908 5.55538 14.908 4.77238C14.908 3.78838 14.762 3.00637 14.472 2.42537C14.2054 1.8683 13.7591 1.41711 13.205 1.14437C12.649 0.871375 12.024 0.734375 11.328 0.734375C10.905 0.734375 10.533 0.890375 10.21 1.20138C9.85303 1.55437 9.59703 2.00938 9.44003 2.56438C9.28914 3.09031 9.16234 3.62287 9.06004 4.16038C8.96504 4.67038 8.81804 5.03038 8.61904 5.24038C8.21304 5.68538 7.76904 6.22437 7.28904 6.85537C6.45204 7.95737 5.88504 8.60937 5.58704 8.81137H2.18204C1.74204 8.81137 1.36704 8.96938 1.05704 9.28438C0.906107 9.43332 0.786916 9.6113 0.706654 9.80758C0.626392 10.0039 0.586721 10.2144 0.590036 10.4264V18.5034C0.590036 18.9494 0.745036 19.3304 1.05604 19.6454C1.36604 19.9614 1.74104 20.1184 2.18104 20.1184H5.76004C5.94304 20.1184 6.51404 20.2874 7.47504 20.6234C8.49504 20.9854 9.39104 21.2614 10.166 21.4504C10.9368 21.6393 11.7275 21.7346 12.521 21.7344H14.124C15.292 21.7344 16.233 21.3954 16.945 20.7184C17.657 20.0404 18.01 19.1184 18.002 17.9484C18.499 17.3004 18.747 16.5514 18.747 15.7014C18.7473 15.5201 18.735 15.339 18.71 15.1594C19.025 14.5954 19.182 13.9894 19.182 13.3424C19.1832 13.0484 19.1455 12.7555 19.07 12.4714Z" fill="#E8E8E8"/>
</svg>
